<svg xmlns="http://www.w3.org/2000/svg" xmlns:xlink="http://www.w3.org/1999/xlink" width="180" height="40.424" viewBox="0 0 180 40.424">
  <defs>
    <linearGradient id="linear-gradient" x1="0.502" y1="-0.109" x2="0.494" y2="1.891" gradientUnits="objectBoundingBox">
      <stop offset="0" stop-color="#6e6e6e"/>
      <stop offset="0.078" stop-color="#787878"/>
      <stop offset="0.212" stop-color="#939393"/>
      <stop offset="0.383" stop-color="#bebebe"/>
      <stop offset="0.491" stop-color="#dedede"/>
      <stop offset="1" stop-color="#0d0d0d"/>
    </linearGradient>
    <linearGradient id="linear-gradient-2" x1="0.741" y1="3.838" x2="0.462" y2="0.288" gradientUnits="objectBoundingBox">
      <stop offset="0" stop-color="#fff28f"/>
      <stop offset="0.644" stop-color="#ffc800"/>
      <stop offset="0.701" stop-color="#fac300"/>
      <stop offset="0.766" stop-color="#eeb503"/>
      <stop offset="0.836" stop-color="#da9e08"/>
      <stop offset="0.908" stop-color="#be7e0f"/>
      <stop offset="0.982" stop-color="#9a5517"/>
      <stop offset="1" stop-color="#904a1a"/>
    </linearGradient>
    <linearGradient id="linear-gradient-3" x1="0.518" y1="0.847" x2="0.483" y2="0.184" gradientUnits="objectBoundingBox">
      <stop offset="0" stop-color="#cc8118"/>
      <stop offset="0.442" stop-color="#ffd348"/>
      <stop offset="0.644" stop-color="#ffc800"/>
      <stop offset="0.703" stop-color="#fbc301"/>
      <stop offset="0.771" stop-color="#f1b504"/>
      <stop offset="0.843" stop-color="#e09e09"/>
      <stop offset="0.918" stop-color="#c87e10"/>
      <stop offset="0.994" stop-color="#a9551a"/>
      <stop offset="1" stop-color="#a7521b"/>
    </linearGradient>
    <linearGradient id="linear-gradient-4" x1="0.507" y1="-3.973" x2="0.499" y2="0.945" xlink:href="#linear-gradient"/>
    <linearGradient id="linear-gradient-5" x1="0.987" y1="0.5" x2="0.011" y2="0.5" gradientUnits="objectBoundingBox">
      <stop offset="0" stop-color="#3b3b3b"/>
      <stop offset="0.509" stop-color="#c7c7c7"/>
      <stop offset="1" stop-color="#121212"/>
    </linearGradient>
    <linearGradient id="linear-gradient-6" x1="0.013" y1="0.514" x2="0.948" y2="0.472" gradientUnits="objectBoundingBox">
      <stop offset="0" stop-color="#fff28f"/>
      <stop offset="0.534" stop-color="#ffc800"/>
      <stop offset="0.608" stop-color="#fac300"/>
      <stop offset="0.694" stop-color="#eeb503"/>
      <stop offset="0.785" stop-color="#da9e08"/>
      <stop offset="0.879" stop-color="#be7e0f"/>
      <stop offset="0.976" stop-color="#9a5517"/>
      <stop offset="1" stop-color="#904a1a"/>
    </linearGradient>
    <linearGradient id="linear-gradient-7" x1="2.583" y1="0.5" x2="0.031" y2="0.5" xlink:href="#linear-gradient-5"/>
    <linearGradient id="linear-gradient-8" x1="0.592" y1="1.016" x2="0.418" y2="0.084" xlink:href="#linear-gradient-3"/>
    <linearGradient id="linear-gradient-9" x1="0.722" y1="-3.96" x2="0.483" y2="0.944" xlink:href="#linear-gradient"/>
    <linearGradient id="linear-gradient-10" x1="-0.012" y1="0.505" x2="0.983" y2="0.494" xlink:href="#linear-gradient-6"/>
    <linearGradient id="linear-gradient-11" x1="0.501" y1="-0.034" x2="0.497" y2="0.99" gradientUnits="objectBoundingBox">
      <stop offset="0" stop-color="#8f8f8f"/>
      <stop offset="0.102" stop-color="#999"/>
      <stop offset="0.276" stop-color="#b4b4b4"/>
      <stop offset="0.491" stop-color="#dedede"/>
      <stop offset="1" stop-color="#0d0d0d"/>
    </linearGradient>
  </defs>
  <g id="NorthAlley_Logo" data-name="NorthAlley Logo" transform="translate(-418.56 -516.828)">
    <g id="Group_2" data-name="Group 2" transform="translate(418.56 516.828)">
      <g id="Group_1" data-name="Group 1" transform="translate(0 0)">
        <path id="Path_1" data-name="Path 1" d="M1193.4,544.446a2.6,2.6,0,0,1,1.146,1.43l0,.011,3.421,8.043a11.668,11.668,0,0,0,5.179,5.3l1.247.557,1.213.541a.345.345,0,0,1,.167.319c0,.215-.094.306-.291.418l-6.442,2.807h0l6.32-2.752a1.484,1.484,0,0,0,.173-.087.389.389,0,0,0,.217-.373c0-.007,0-.019,0-.027a.418.418,0,0,0-.132-.229.978.978,0,0,0-.232-.125l-1.047-.467-.837-.371c-.221-.1-.5-.212-.73-.34a9.6,9.6,0,0,1-2.1-1.544,10.156,10.156,0,0,1-2.589-3.286s-3.658-8.6-3.675-8.632A2.5,2.5,0,0,0,1193.4,544.446Z" transform="translate(-1173.305 -543.729)" fill="url(#linear-gradient)"/>
        <path id="Path_2" data-name="Path 2" d="M444.915,833.316c-.779.388-1.144.794-1.257,1.174a2.389,2.389,0,0,1,1.532-1.332l.013,0,8.036-3.42a11.715,11.715,0,0,0,5.291-5.187l.553-1.248.538-1.215a.341.341,0,0,1,.322-.167c.213,0,.309.09.413.289l2.807,6.447-.024.055s0,0,0,0V828.7l-.005-.007-2.754-6.341a1.975,1.975,0,0,0-.087-.179.394.394,0,0,0-.374-.214h-.027a.357.357,0,0,0-.224.134,1.1,1.1,0,0,0-.129.231l-.464,1.05-.374.834c-.1.224-.209.5-.335.732a9.657,9.657,0,0,1-1.541,2.1,10.119,10.119,0,0,1-3.284,2.594S444.946,833.3,444.915,833.316Z" transform="translate(-443.007 -814.002)" fill="url(#linear-gradient-2)"/>
        <path id="Path_3" data-name="Path 3" d="M743.1,1304.228l-6.111,2.666c.058-.031.118-.058.118-.058Z" transform="translate(-728.73 -1283.803)" fill="url(#linear-gradient-3)"/>
        <path id="Path_4" data-name="Path 4" d="M1200.231,1284.613l.02-.044s0,0,0,0v.006l0,.007,2.756,6.341a1.813,1.813,0,0,0,.087.179.4.4,0,0,0,.374.216.039.039,0,0,0,.024,0,.364.364,0,0,0,.228-.133.979.979,0,0,0,.125-.227v-.005l.468-1.046.369-.833c.1-.224.211-.5.339-.737a9.755,9.755,0,0,1,1.541-2.1,10.191,10.191,0,0,1,3.284-2.6s8.592-3.662,8.625-3.673c.842-.426,1.2-.863,1.277-1.274.005-.029.009-.057.012-.086-.044.542-.563,1.1-1.56,1.507l-.014,0-8.034,3.423a11.71,11.71,0,0,0-5.293,5.185l-.554,1.248-.542,1.219a.33.33,0,0,1-.317.164c-.214,0-.308-.09-.416-.287Z" transform="translate(-1179.953 -1258.842)" fill="url(#linear-gradient-4)"/>
        <path id="Path_5" data-name="Path 5" d="M732.988,1234.4l.32.141a11.827,11.827,0,0,1,5.293,5.3l-.02.044,2.806,6.451c.107.2.2.288.416.288a.33.33,0,0,0,.317-.164l.542-1.219.554-1.248a11.714,11.714,0,0,1,5.293-5.185l8.034-3.423.013,0c1-.411,1.516-.964,1.56-1.507a.505.505,0,0,0,0-.078.663.663,0,0,0,0-.074.623.623,0,0,0-.008-.07h0a.749.749,0,0,0-.034-.141v0a.49.49,0,0,0-.025-.071.514.514,0,0,0-.031-.07,1.89,1.89,0,0,0-.6-.685l.239.159c1.466.847,1.365,2.159.119,3.023-.483.332-8.874,3.925-8.961,3.967a12.3,12.3,0,0,0-4.735,4.579c-.113.2-.215.407-.3.606l-1.449,3.34-2.044,4.7a2.513,2.513,0,0,1-.16.228,1.313,1.313,0,0,1-1.229.625l-.016,0c-.4-.09-.83-.449-1.246-1.276-.015-.032-3.673-8.633-3.673-8.633a10.048,10.048,0,0,0-2.591-3.286,9.513,9.513,0,0,0-2.1-1.546c-.232-.13-.511-.242-.734-.338l-.834-.372-1.049-.467a.871.871,0,0,1-.229-.125.4.4,0,0,1-.133-.228.047.047,0,0,1,0-.023.389.389,0,0,1,.219-.373.629.629,0,0,1,.055-.032l0,0,6.111-2.665Z" transform="translate(-718.304 -1214.115)" fill="url(#linear-gradient-5)"/>
        <path id="Path_6" data-name="Path 6" d="M419.188,560.75a1.337,1.337,0,0,0,.686,1.277l-.235-.154c-1.467-.85-1.369-2.161-.121-3.021.487-.333,8.874-3.931,8.961-3.972a12.251,12.251,0,0,0,4.731-4.575,5.955,5.955,0,0,0,.3-.605l1.451-3.339,2.042-4.7c.054-.083.107-.161.162-.232a1.21,1.21,0,0,1,1.477-.548l.013.005a2.5,2.5,0,0,1,1,1.191c.018.031,3.675,8.632,3.675,8.632a10.159,10.159,0,0,0,2.589,3.286,9.591,9.591,0,0,0,2.1,1.544c.231.128.508.242.73.34l.837.371,1.046.467a.979.979,0,0,1,.232.125.416.416,0,0,1,.131.228c0,.008,0,.02,0,.027a.39.39,0,0,1-.217.373,1.5,1.5,0,0,1-.173.087l-6.32,2.752-.317-.138a11.835,11.835,0,0,1-5.289-5.295h0l.024-.055-2.807-6.447c-.1-.2-.2-.289-.413-.289a.341.341,0,0,0-.322.167l-.538,1.215-.553,1.247a11.715,11.715,0,0,1-5.292,5.188l-8.036,3.42-.013,0a2.388,2.388,0,0,0-1.532,1.332.041.041,0,0,0,0,.012l0,.007a.2.2,0,0,1-.007.028C419.195,560.718,419.191,560.734,419.188,560.75Z" transform="translate(-418.56 -540.168)" fill="url(#linear-gradient-6)"/>
        <path id="Path_7" data-name="Path 7" d="M736.374,1422.269l-3.42-8.045a11.7,11.7,0,0,0-5.176-5.3l-1.246-.555-1.218-.541a.34.34,0,0,1-.165-.318c0-.218.091-.307.29-.416l.013-.005a.6.6,0,0,0-.055.032.389.389,0,0,0-.219.373.051.051,0,0,0,0,.023.4.4,0,0,0,.133.228.877.877,0,0,0,.229.125l1.049.467.834.372c.223.1.5.208.734.338a9.509,9.509,0,0,1,2.1,1.546,10.052,10.052,0,0,1,2.591,3.286s3.658,8.6,3.673,8.633c.416.828.846,1.186,1.246,1.276-.508-.094-1.006-.6-1.389-1.507Z" transform="translate(-717.196 -1383.994)" fill="url(#linear-gradient-7)"/>
        <path id="Path_8" data-name="Path 8" d="M443.022,837.378a1.233,1.233,0,0,1-.689-1.278.233.233,0,0,0,.007-.028l0-.007a.037.037,0,0,1,0-.012c.113-.38.478-.786,1.257-1.174.031-.015,8.622-3.679,8.622-3.679a10.118,10.118,0,0,0,3.284-2.594,9.659,9.659,0,0,0,1.541-2.1c.126-.23.236-.508.335-.732l.374-.834.464-1.05a1.1,1.1,0,0,1,.129-.231.357.357,0,0,1,.224-.134h.027a.394.394,0,0,1,.374.214,1.981,1.981,0,0,1,.087.179l2.754,6.341.005.007v.005s0,0,0,0h0l-.115.264a11.817,11.817,0,0,1-5.3,5.3l0,0H456.4l-.025.011-.312.137-5.993,2.608s-.06.027-.118.058l0,0-.013.005c-.2.109-.29.2-.29.416a.34.34,0,0,0,.165.318l1.218.541,1.246.554a11.7,11.7,0,0,1,5.176,5.3l3.42,8.045.007.012c.384.911.881,1.413,1.39,1.507l.016,0,.008,0a1.35,1.35,0,0,0,1.274-.692l-.15.235c-.85,1.471-2.158,1.372-3.021.125-.335-.488-3.925-8.884-3.972-8.973a12.228,12.228,0,0,0-4.566-4.738c-.205-.116-.408-.216-.608-.3l-3.333-1.45-4.693-2.047C443.138,837.469,443.1,837.429,443.022,837.378Z" transform="translate(-441.693 -815.565)" fill="url(#linear-gradient-8)"/>
        <path id="Path_9" data-name="Path 9" d="M1953.291,1275.6a.5.5,0,0,1,0,.078A.72.72,0,0,0,1953.291,1275.6Z" transform="translate(-1913.476 -1255.918)" fill="url(#linear-gradient-9)"/>
        <path id="Path_10" data-name="Path 10" d="M443.451,1307.082l0-.007Z" transform="translate(-442.805 -1286.576)" fill="url(#linear-gradient-10)"/>
        <path id="Path_11" data-name="Path 11" d="M1135.723,517.539a1.048,1.048,0,0,0-.256-.089,1.355,1.355,0,0,0-1.266.684l.15-.227c.852-1.467,2.158-1.371,3.021-.12.333.485,3.922,8.884,3.964,8.969a12.286,12.286,0,0,0,4.573,4.742,6.447,6.447,0,0,0,.61.3l3.331,1.45,4.694,2.046c.082.054.122.094.194.144a1.677,1.677,0,0,1,.615.645c.011.024.021.047.031.07s.017.047.026.071h0a1.016,1.016,0,0,1,.033.141h0c0,.023.005.047.008.07a.713.713,0,0,1,0,.074.693.693,0,0,1,0,.078c0,.028-.007.056-.012.086-.076.411-.435.849-1.277,1.274-.032.011-8.625,3.673-8.625,3.673a10.2,10.2,0,0,0-3.284,2.6,9.768,9.768,0,0,0-1.541,2.1c-.129.235-.24.513-.339.737l-.369.833-.468,1.046v.005a.987.987,0,0,1-.125.227.363.363,0,0,1-.228.133.034.034,0,0,1-.024.005.4.4,0,0,1-.374-.216,1.813,1.813,0,0,1-.087-.179l-2.756-6.341,0-.007v-.005s0,0,0,0l.121-.274a11.831,11.831,0,0,1,5.3-5.306h.005l.016-.007h0l6.442-2.807c.2-.112.291-.2.291-.418a.344.344,0,0,0-.166-.32l-1.213-.541-1.247-.557a11.668,11.668,0,0,1-5.179-5.3l-3.42-8.043,0-.011a2.6,2.6,0,0,0-1.146-1.43Z" transform="translate(-1115.637 -516.828)" fill="url(#linear-gradient-11)"/>
      </g>
    </g>
    <g id="Group_3" data-name="Group 3" transform="translate(466.401 524.213)">
      <path id="Path_12" data-name="Path 12" d="M2266.383,829.2v11.877h-3.606V822.526h2.8l9.68,12.178V822.552h3.606V841.1h-2.93Z" transform="translate(-2262.777 -821.981)" fill="#313b44"/>
      <path id="Path_13" data-name="Path 13" d="M2935.024,1007.8a7.178,7.178,0,1,1,7.19,7.085A6.928,6.928,0,0,1,2935.024,1007.8Zm7.19,4.1c2.013,0,3.582-1.725,3.582-4.131,0-2.379-1.569-4.105-3.582-4.105s-3.582,1.752-3.582,4.131C2938.632,1010.2,2940.2,1011.9,2942.214,1011.9Z" transform="translate(-2917.585 -995.52)" fill="#313b44"/>
      <path id="Path_14" data-name="Path 14" d="M3534.923,1004.713c-2.113.026-3.912.835-4.643,2.374v8.281h-3.5v-13.7h3.217v2.928a5.131,5.131,0,0,1,4.225-3.138,3.817,3.817,0,0,1,.7.052Z" transform="translate(-3493.988 -996.276)" fill="#313b44"/>
      <path id="Path_15" data-name="Path 15" d="M3887.016,855.961a10.023,10.023,0,0,1-3.894.941c-1.934,0-3.554-.941-3.554-3.373v-7.87h-1.79v-2.7h1.79v-4.436h3.5v4.436h2.905v2.7h-2.905v6.693a1.209,1.209,0,0,0,1.333,1.333,5.057,5.057,0,0,0,1.908-.5Z" transform="translate(-3835.883 -837.566)" fill="#313b44"/>
      <path id="Path_16" data-name="Path 16" d="M4289.514,820.618h-3.5v-7.687c0-2.144-.865-3.164-2.3-3.164a4.053,4.053,0,0,0-3.43,2.85v8h-3.5V801.526h3.5v7.925a5.591,5.591,0,0,1,4.918-2.772c3.533,0,4.316,2.694,4.316,5.388Z" transform="translate(-4224.531 -801.526)" fill="#313b44"/>
      <path id="Path_17" data-name="Path 17" d="M4799.457,841.1l7.323-18.574h2.931l7.3,18.574H4813.2l-1.705-4.643h-6.532l-1.705,4.643Zm8.789-14.689-2.667,7.5h5.256Z" transform="translate(-4733.656 -821.981)" fill="#313b44"/>
      <path id="Path_18" data-name="Path 18" d="M5511.776,802.526h3.5v14.537c0,1.02.523,1.595,1.438,1.595a4.126,4.126,0,0,0,1.386-.34l.469,2.8a8.725,8.725,0,0,1-3.345.706,3.116,3.116,0,0,1-3.449-3.373Z" transform="translate(-5427.494 -802.5)" fill="#313b44"/>
      <path id="Path_19" data-name="Path 19" d="M5806.776,802.526h3.5v14.537c0,1.02.522,1.595,1.437,1.595a4.118,4.118,0,0,0,1.384-.34l.471,2.8a8.727,8.727,0,0,1-3.345.706,3.116,3.116,0,0,1-3.451-3.373Z" transform="translate(-5714.842 -802.5)" fill="#313b44"/>
      <path id="Path_20" data-name="Path 20" d="M6069.564,1008.2a6.954,6.954,0,0,1,7.243-7.164,6.866,6.866,0,0,1,7.138,7.033,7.348,7.348,0,0,1-.079,1.177h-10.589a3.59,3.59,0,0,0,3.634,3.425,3.489,3.489,0,0,0,3.243-1.856l3.006.837a6.82,6.82,0,0,1-6.38,3.582A6.919,6.919,0,0,1,6069.564,1008.2Zm10.771-1.237a3.545,3.545,0,0,0-3.581-3.4,3.5,3.5,0,0,0-3.53,3.4Z" transform="translate(-5970.815 -995.864)" fill="#313b44"/>
      <path id="Path_21" data-name="Path 21" d="M6623,1025.894a5.524,5.524,0,0,0,1.543.235c.889,0,1.385-.5,2.143-2.9l-5.437-13.7h3.608l3.74,10.668,3.293-10.668h3.3l-5.778,16.42a4.674,4.674,0,0,1-4.55,3.268,6.408,6.408,0,0,1-1.856-.287Z" transform="translate(-6508.182 -1004.13)" fill="#313b44"/>
    </g>
    <g id="Group_4" data-name="Group 4" transform="translate(471.329 548.701)">
      <path id="Path_22" data-name="Path 22" d="M2456.254,1754.883v.7h-3.476v-5.058h3.424v.7h-2.62v1.453h2.257v.649h-2.257v1.556Z" transform="translate(-2452.778 -1750.396)" fill="#838b92"/>
      <path id="Path_23" data-name="Path 23" d="M2621.124,1803.847h-.778v-2.089c0-.7-.237-1.005-.666-1.005a1.275,1.275,0,0,0-1.124.877v2.217h-.778v-3.735h.7v.75a1.727,1.727,0,0,1,1.523-.814c.9,0,1.123.7,1.123,1.521Z" transform="translate(-2613.497 -1798.633)" fill="#838b92"/>
      <path id="Path_24" data-name="Path 24" d="M2773.483,1802.662c0-.7.653-1.184,1.585-1.184a2.838,2.838,0,0,1,.991.172v-.256a.81.81,0,0,0-.906-.87,2.085,2.085,0,0,0-1.175.424l-.24-.5a2.614,2.614,0,0,1,1.486-.481,1.426,1.426,0,0,1,1.613,1.507v1.347c0,.188.06.263.234.271v.67a2.088,2.088,0,0,1-.388.036.471.471,0,0,1-.5-.409l-.021-.237a1.763,1.763,0,0,1-1.413.682A1.2,1.2,0,0,1,2773.483,1802.662Zm2.426.2a.39.39,0,0,0,.15-.271v-.492a2.54,2.54,0,0,0-.863-.164c-.556,0-.955.271-.955.663a.684.684,0,0,0,.735.656A1.2,1.2,0,0,0,2775.909,1802.862Z" transform="translate(-2765.163 -1798.56)" fill="#838b92"/>
      <path id="Path_25" data-name="Path 25" d="M2942.477,1750.048v.692h-.7v-5.214h.8v2.177a1.507,1.507,0,0,1,1.328-.77,1.792,1.792,0,0,1,1.655,1.947,1.821,1.821,0,0,1-1.755,1.918C2943.232,1750.8,2942.477,1750.048,2942.477,1750.048Zm2.293-1.169a1.2,1.2,0,0,0-1.1-1.276,1.264,1.264,0,0,0-1.084.806v.984a1.122,1.122,0,0,0,1.027.734A1.2,1.2,0,0,0,2944.77,1748.878Z" transform="translate(-2929.092 -1745.525)" fill="#838b92"/>
      <path id="Path_26" data-name="Path 26" d="M3117.777,1745.525h.778v4.107a.388.388,0,0,0,.4.442,1,1,0,0,0,.382-.093l.113.635a2.315,2.315,0,0,1-.82.171.784.784,0,0,1-.856-.849Z" transform="translate(-3100.526 -1745.525)" fill="#838b92"/>
      <path id="Path_27" data-name="Path 27" d="M3201.778,1746.381v-.856h.778v.856Zm0,4.358V1747h.778v3.736Z" transform="translate(-3182.348 -1745.525)" fill="#838b92"/>
      <path id="Path_28" data-name="Path 28" d="M3274.124,1803.847h-.779v-2.089c0-.7-.236-1.005-.666-1.005a1.276,1.276,0,0,0-1.124.877v2.217h-.778v-3.735h.7v.75a1.727,1.727,0,0,1,1.522-.814c.9,0,1.124.7,1.124,1.521Z" transform="translate(-3249.558 -1798.633)" fill="#838b92"/>
      <path id="Path_29" data-name="Path 29" d="M3428.34,1801.676a1.8,1.8,0,0,1,1.726-1.932,1.557,1.557,0,0,1,1.347.77v-.7h.7v3.622a1.744,1.744,0,0,1-1.967,1.7,1.954,1.954,0,0,1-1.7-.8l.439-.413a1.534,1.534,0,0,0,1.266.613,1.066,1.066,0,0,0,1.188-1.1v-.578s-.784.713-1.3.713A1.786,1.786,0,0,1,3428.34,1801.676Zm2.969.521v-.977a1.235,1.235,0,0,0-1.084-.806,1.27,1.27,0,0,0,.057,2.524A1.113,1.113,0,0,0,3431.309,1802.2Z" transform="translate(-3403.034 -1798.337)" fill="#838b92"/>
      <path id="Path_30" data-name="Path 30" d="M3664.953,1751.226h-1.687v4.358h-.8v-4.358h-1.686v-.7h4.177Z" transform="translate(-3629.441 -1750.396)" fill="#838b92"/>
      <path id="Path_31" data-name="Path 31" d="M3850.123,1750.74h-.779v-2.089c0-.677-.258-1.005-.716-1.005a1.236,1.236,0,0,0-1.074.877v2.218h-.778v-5.214h.778v2.228a1.6,1.6,0,0,1,1.391-.814c.92,0,1.177.707,1.177,1.521Z" transform="translate(-3810.617 -1745.525)" fill="#838b92"/>
      <path id="Path_32" data-name="Path 32" d="M4004.219,1802.079a1.889,1.889,0,0,1,1.94-1.939,1.858,1.858,0,0,1,1.9,1.9,2.425,2.425,0,0,1-.021.285h-2.988a1.14,1.14,0,0,0,1.126,1.1,1.059,1.059,0,0,0,.977-.571l.67.193a1.8,1.8,0,0,1-1.675.955A1.884,1.884,0,0,1,4004.219,1802.079Zm3.067-.3a1.133,1.133,0,0,0-1.134-1.069,1.115,1.115,0,0,0-1.119,1.069Z" transform="translate(-3963.974 -1798.723)" fill="#838b92"/>
      <path id="Path_33" data-name="Path 33" d="M4253.776,1755.584v-5.058h1.8a2.53,2.53,0,0,1,0,5.058Zm1.806-4.358h-1v3.657h1a1.838,1.838,0,0,0,0-3.657Z" transform="translate(-4207.058 -1750.396)" fill="#838b92"/>
      <path id="Path_34" data-name="Path 34" d="M4448.777,1746.381v-.856h.778v.856Zm0,4.358V1747h.778v3.736Z" transform="translate(-4396.997 -1745.525)" fill="#838b92"/>
      <path id="Path_35" data-name="Path 35" d="M4508.906,1801.676a1.8,1.8,0,0,1,1.726-1.932,1.588,1.588,0,0,1,1.358.77v-.7h.676v3.622a1.745,1.745,0,0,1-1.968,1.7,1.955,1.955,0,0,1-1.705-.8l.439-.413a1.534,1.534,0,0,0,1.266.613,1.065,1.065,0,0,0,1.188-1.1v-.578s-.769.713-1.282.713A1.786,1.786,0,0,1,4508.906,1801.676Zm2.98.521v-.977a1.234,1.234,0,0,0-1.084-.806,1.27,1.27,0,0,0,.058,2.524A1.113,1.113,0,0,0,4511.886,1802.2Z" transform="translate(-4455.57 -1798.337)" fill="#838b92"/>
      <path id="Path_36" data-name="Path 36" d="M4692.778,1746.381v-.856h.777v.856Zm0,4.358V1747h.777v3.736Z" transform="translate(-4634.67 -1745.525)" fill="#838b92"/>
      <path id="Path_37" data-name="Path 37" d="M4752.137,1760.273a2.421,2.421,0,0,1-.977.249.8.8,0,0,1-.89-.848v-2.332h-.492v-.6h.492v-1.219h.777v1.219h.805v.6h-.805v2.082a.354.354,0,0,0,.39.378,1.219,1.219,0,0,0,.531-.15Z" transform="translate(-4690.193 -1755.267)" fill="#838b92"/>
      <path id="Path_38" data-name="Path 38" d="M4853.488,1802.662c0-.7.652-1.184,1.585-1.184a2.832,2.832,0,0,1,.99.172v-.256a.81.81,0,0,0-.905-.87,2.084,2.084,0,0,0-1.176.424l-.239-.5a2.608,2.608,0,0,1,1.485-.481,1.426,1.426,0,0,1,1.612,1.507v1.347c0,.188.061.263.234.271v.67a2.078,2.078,0,0,1-.387.036.472.472,0,0,1-.5-.409l-.021-.237a1.765,1.765,0,0,1-1.414.682A1.2,1.2,0,0,1,4853.488,1802.662Zm2.426.2a.393.393,0,0,0,.149-.271v-.492a2.538,2.538,0,0,0-.864-.164c-.556,0-.955.271-.955.663a.684.684,0,0,0,.734.656A1.207,1.207,0,0,0,4855.914,1802.862Z" transform="translate(-4791.213 -1798.56)" fill="#838b92"/>
      <path id="Path_39" data-name="Path 39" d="M5022.777,1745.525h.778v4.107a.387.387,0,0,0,.4.442,1.009,1.009,0,0,0,.384-.093l.113.635a2.319,2.319,0,0,1-.822.171.783.783,0,0,1-.854-.849Z" transform="translate(-4956.108 -1745.525)" fill="#838b92"/>
      <path id="Path_40" data-name="Path 40" d="M5178.254,1754.883v.7h-3.475v-5.058h3.4v.7h-2.62v1.453h2.256v.649h-2.256v1.556Z" transform="translate(-5104.167 -1750.396)" fill="#838b92"/>
      <path id="Path_41" data-name="Path 41" d="M5342.15,1803.847h-.8v-2.089c0-.7-.236-1.005-.667-1.005a1.276,1.276,0,0,0-1.124.877v2.217h-.778v-3.735h.726v.75a1.73,1.73,0,0,1,1.524-.814c.9,0,1.123.7,1.123,1.521Z" transform="translate(-5263.914 -1798.633)" fill="#838b92"/>
      <path id="Path_42" data-name="Path 42" d="M5496.138,1760.273a2.432,2.432,0,0,1-.976.249.8.8,0,0,1-.893-.848v-2.332h-.492v-.6h.492v-1.219h.779v1.219h.8v.6h-.8v2.082a.354.354,0,0,0,.389.378,1.209,1.209,0,0,0,.53-.15Z" transform="translate(-5414.892 -1755.267)" fill="#838b92"/>
      <path id="Path_43" data-name="Path 43" d="M5598.544,1802.079a1.887,1.887,0,0,1,1.938-1.939,1.858,1.858,0,0,1,1.9,1.9,2.314,2.314,0,0,1-.021.285h-2.987a1.14,1.14,0,0,0,1.127,1.1,1.057,1.057,0,0,0,.976-.571l.67.193a1.8,1.8,0,0,1-1.675.955A1.883,1.883,0,0,1,5598.544,1802.079Zm3.065-.3a1.132,1.132,0,0,0-1.134-1.069,1.115,1.115,0,0,0-1.119,1.069Z" transform="translate(-5516.941 -1798.723)" fill="#838b92"/>
      <path id="Path_44" data-name="Path 44" d="M5775.878,1801.854a1.4,1.4,0,0,0-1.322.776v2.293h-.778v-3.735h.726v.834a1.432,1.432,0,0,1,1.174-.87,1.469,1.469,0,0,1,.2.007Z" transform="translate(-5687.628 -1799.709)" fill="#838b92"/>
      <path id="Path_45" data-name="Path 45" d="M5880.553,1802.838v2.218h-.778v-5.24h.674v.662a1.574,1.574,0,0,1,1.329-.734,1.835,1.835,0,0,1,1.754,1.925,1.774,1.774,0,0,1-1.654,1.94C5881.278,1803.608,5880.553,1802.838,5880.553,1802.838Zm2.19-1.169a1.2,1.2,0,0,0-1.163-1.255,1.145,1.145,0,0,0-1.028.734v.977a1.26,1.26,0,0,0,1.084.813A1.2,1.2,0,0,0,5882.743,1801.669Z" transform="translate(-5790.876 -1798.337)" fill="#838b92"/>
      <path id="Path_46" data-name="Path 46" d="M6055.879,1801.854a1.4,1.4,0,0,0-1.323.776v2.293h-.777v-3.735h.725v.834a1.435,1.435,0,0,1,1.175-.87,1.489,1.489,0,0,1,.2.007Z" transform="translate(-5960.364 -1799.709)" fill="#838b92"/>
      <path id="Path_47" data-name="Path 47" d="M6159.776,1746.381v-.856h.778v.856Zm0,4.358V1747h.778v3.736Z" transform="translate(-6063.613 -1745.525)" fill="#838b92"/>
      <path id="Path_48" data-name="Path 48" d="M6216.2,1803.088l.328-.528a2.363,2.363,0,0,0,1.361.477c.473,0,.772-.185.772-.52,0-.313-.3-.413-.97-.577-.936-.235-1.305-.428-1.305-1.005,0-.756.642-1.191,1.461-1.191a2.491,2.491,0,0,1,1.462.478l-.335.478a1.886,1.886,0,0,0-1.142-.4c-.4,0-.712.157-.712.521,0,.307.213.385.82.534,1.026.243,1.477.464,1.477,1.1,0,.706-.593,1.155-1.512,1.155A2.981,2.981,0,0,1,6216.2,1803.088Z" transform="translate(-6118.577 -1798.337)" fill="#838b92"/>
      <path id="Path_49" data-name="Path 49" d="M6359.416,1802.079a1.888,1.888,0,0,1,1.938-1.939,1.858,1.858,0,0,1,1.9,1.9,2.691,2.691,0,0,1-.021.285h-2.987a1.14,1.14,0,0,0,1.126,1.1,1.06,1.06,0,0,0,.977-.571l.67.193a1.8,1.8,0,0,1-1.676.955A1.883,1.883,0,0,1,6359.416,1802.079Zm3.066-.3a1.132,1.132,0,0,0-1.134-1.069,1.113,1.113,0,0,0-1.119,1.069Z" transform="translate(-6258.074 -1798.723)" fill="#838b92"/>
    </g>
    <g id="Group_5" data-name="Group 5" transform="translate(594.261 526.003)">
      <path id="Path_50" data-name="Path 50" d="M7191.733,872.631a2.15,2.15,0,1,1,2.143,2.1A2.059,2.059,0,0,1,7191.733,872.631Zm4.055.006a1.906,1.906,0,1,0-1.912,1.877A1.847,1.847,0,0,0,7195.788,872.637Zm-2.81-1.288h1.15a.844.844,0,0,1,.815.832.781.781,0,0,1-.576.768l.654.994h-.482l-.589-.934h-.581v.934h-.391Zm1.079,1.323a.437.437,0,0,0,.433-.5.454.454,0,0,0-.45-.49h-.7v.986Z" transform="translate(-7191.733 -870.546)" fill="#838b92"/>
    </g>
  </g>
</svg>